<svg version="1.1" xmlns="http://www.w3.org/2000/svg" xmlns:xlink="http://www.w3.org/1999/xlink" viewBox="0 0 172 172"><g fill="none" fill-rule="nonzero" stroke="none" stroke-width="1" stroke-linecap="butt" stroke-linejoin="miter" stroke-miterlimit="10" stroke-dasharray="" stroke-dashoffset="0" font-family="none" font-weight="none" font-size="none" text-anchor="none" style="mix-blend-mode: normal"><path d="M0,172v-172h172v172z" fill="none"></path><g fill="#ffffff"><path d="M33.59375,1.34375c-9.63469,0 -17.46875,7.83406 -17.46875,17.46875c0,9.63469 7.83406,17.46875 17.46875,17.46875c9.63469,0 17.46875,-7.83406 17.46875,-17.46875c0,-9.63469 -7.83406,-17.46875 -17.46875,-17.46875zM86,1.34375c-9.63469,0 -17.46875,7.83406 -17.46875,17.46875c0,9.63469 7.83406,17.46875 17.46875,17.46875c9.63469,0 17.46875,-7.83406 17.46875,-17.46875c0,-9.63469 -7.83406,-17.46875 -17.46875,-17.46875zM33.59375,9.40625c5.18688,0 9.40625,4.21938 9.40625,9.40625c0,5.18688 -4.21937,9.40625 -9.40625,9.40625c-5.18688,0 -9.40625,-4.21937 -9.40625,-9.40625c0,-5.18687 4.21937,-9.40625 9.40625,-9.40625zM86,9.40625c5.18688,0 9.40625,4.21938 9.40625,9.40625c0,5.18688 -4.21937,9.40625 -9.40625,9.40625c-5.18688,0 -9.40625,-4.21937 -9.40625,-9.40625c0,-5.18687 4.21937,-9.40625 9.40625,-9.40625zM34.85614,41.65625c-16.25937,0 -29.48114,13.22176 -29.48114,29.48114v39.05011c0,5.25406 3.37281,9.7425 8.0625,11.40875v36.96625c0,6.665 5.42875,12.09375 12.09375,12.09375c3.10406,0 5.92594,-1.18324 8.0625,-3.1048c2.13656,1.92156 4.95844,3.1048 8.0625,3.1048c6.665,0 12.09375,-5.42875 12.09375,-12.09375v-34.9375c0,-2.23062 -1.80063,-4.03125 -4.03125,-4.03125c-2.23062,0 -4.03125,1.80063 -4.03125,4.03125v34.9375c0,2.21719 -1.81406,4.03125 -4.03125,4.03125c-2.21719,0 -4.03125,-1.81406 -4.03125,-4.03125v-48.375c0,-2.23062 -1.80062,-4.03125 -4.03125,-4.03125c-2.23062,0 -4.03125,1.80063 -4.03125,4.03125v48.375c0,2.21719 -1.81406,4.03125 -4.03125,4.03125c-2.21719,0 -4.03125,-1.81406 -4.03125,-4.03125v-40.3125c0,-2.23062 -1.80062,-4.03125 -4.03125,-4.03125c-2.21719,0 -4.03125,-1.81406 -4.03125,-4.03125v-39.05011c0,-11.81156 9.60708,-21.41864 21.41864,-21.41864c10.93813,0 20.04885,8.1574 21.27167,19.00146v41.46729c0,2.23062 1.80062,4.03125 4.03125,4.03125c2.23062,0 4.03125,-1.80063 4.03125,-4.03125v-41.69562c0,-0.13438 -0.01281,-0.26949 -0.02624,-0.4173c-1.57219,-15.06344 -14.16386,-26.41833 -29.30792,-26.41833zM85.91864,41.65625c-6.26188,0 -12.24041,1.9349 -17.29291,5.60333c-1.80062,1.30344 -2.20364,3.82895 -0.90021,5.62958c1.30344,1.80063 3.82895,2.20365 5.62958,0.90021c3.66844,-2.66062 8.00822,-4.07062 12.56354,-4.07062c11.00531,0 20.15573,8.24968 21.29791,19.18781l1.4671,14.01752c1.20938,11.58313 7.33541,21.53895 16.29822,27.8277v20.93573c0,4.90469 2.04376,9.35292 5.32251,12.52417l1.40936,22.66791c0.13438,2.13656 1.90844,3.77668 4.01813,3.77668c0.08062,0 0.17395,0.00031 0.25457,-0.01313c2.21719,-0.13438 3.91105,-2.05551 3.77668,-4.27269l-1.10231,-17.64459c1.22281,0.26875 2.48604,0.43042 3.80292,0.43042h3.77668l-1.07605,17.21418c-0.13438,2.21719 1.54604,4.13832 3.77666,4.27269c0.08062,0 0.17396,0.01313 0.25459,0.01313c2.10969,0 3.88375,-1.64011 4.01812,-3.77668l1.34375,-21.5c0.06719,-1.11531 -0.32061,-2.20406 -1.08654,-3.01031c-0.76594,-0.80625 -1.85564,-1.27551 -2.97095,-1.27551h-8.0625c-5.18687,0 -9.40625,-4.21938 -9.40625,-9.40625v-16.58167c3.05031,1.19594 6.2877,2.0298 9.67395,2.43292c8.23719,0.99437 14.7676,7.14697 16.24572,15.30353l2.36731,12.99396c0.34937,1.94844 2.05489,3.30687 3.96301,3.30687c0.24188,0 0.48249,-0.02792 0.72436,-0.06824c2.19031,-0.37625 3.64178,-2.48394 3.23865,-4.67425l-2.36469,-12.99659c-2.12313,-11.65031 -11.44812,-20.45093 -23.20593,-21.8753c-14.39156,-1.74688 -25.49104,-13.03427 -26.9826,-27.43927l-1.46448,-14.01489c-1.57219,-15.06344 -14.16386,-26.41833 -29.30792,-26.41833zM142.4375,76.59375c-7.40406,0 -13.4375,6.03344 -13.4375,13.4375c0,7.40406 6.03344,13.4375 13.4375,13.4375c7.40406,0 13.4375,-6.03344 13.4375,-13.4375c0,-7.40406 -6.03344,-13.4375 -13.4375,-13.4375zM142.4375,84.65625c2.96969,0 5.375,2.40531 5.375,5.375c0,2.96969 -2.40531,5.375 -5.375,5.375c-2.96969,0 -5.375,-2.40531 -5.375,-5.375c0,-2.96969 2.40531,-5.375 5.375,-5.375zM103.46875,100.78125c-2.23062,0 -4.03125,1.80063 -4.03125,4.03125v22.84375h-26.875c0,-2.23062 -1.80063,-4.03125 -4.03125,-4.03125c-2.23062,0 -4.03125,1.80063 -4.03125,4.03125c0,4.44781 3.61469,8.0625 8.0625,8.0625h0.29657l2.40405,31.21594c0.16125,2.10969 1.92188,3.72156 4.01813,3.72156c0.1075,0 0.21563,0.00031 0.30969,-0.01313c2.21719,-0.17469 3.88312,-2.11063 3.70843,-4.32782l-2.35156,-30.59656h10.10437l-2.35156,30.59656c-0.17469,2.21719 1.49125,4.15313 3.70843,4.32782c0.1075,0.01344 0.21563,0.01313 0.30969,0.01313c2.08281,0 3.85688,-1.61187 4.01813,-3.72156l2.40405,-31.21594h0.29657c4.44781,0 8.0625,-3.61469 8.0625,-8.0625v-22.84375c0,-2.23062 -1.80063,-4.03125 -4.03125,-4.03125z"></path></g></g></svg>